<svg width="23" height="20" viewBox="0 0 23 20" fill="none" xmlns="http://www.w3.org/2000/svg">
<path d="M6.33731 6.51304L3.87715 8.96522L10.6404 15.7391L22.75 3.62609L20.2898 1.16522L10.6404 10.8174L6.33731 6.51304Z" fill="white"/>
<path d="M18.2556 17.3913C18.2556 17.6219 18.1641 17.8431 18.001 18.0062C17.838 18.1693 17.6169 18.2609 17.3863 18.2609H2.60795C2.37739 18.2609 2.15628 18.1693 1.99325 18.0062C1.83022 17.8431 1.73863 17.6219 1.73863 17.3913V2.6087C1.73863 2.37807 1.83022 2.1569 1.99325 1.99382C2.15628 1.83074 2.37739 1.73913 2.60795 1.73913H17.3081L18.6816 0.356522C18.2884 0.126574 17.8418 0.00365521 17.3863 0H2.60795C1.91628 0 1.25294 0.274844 0.76385 0.764069C0.274765 1.25329 0 1.91683 0 2.6087V17.3913C0 18.0832 0.274765 18.7467 0.76385 19.2359C1.25294 19.7252 1.91628 20 2.60795 20H17.3863C18.078 20 18.7413 19.7252 19.2304 19.2359C19.7195 18.7467 19.9943 18.0832 19.9943 17.3913V8.84348L18.2556 10.5826V17.3913Z" fill="white"/>
</svg>
