<svg width="61" height="61" fill="none" xmlns="http://www.w3.org/2000/svg"><circle cx="30.5" cy="30.5" r="30.5" fill="#fff"/><path d="M20.947 17.795c-.887 2.609-1.659 5.237-2.382 7.874a48.63 48.63 0 01-.926-8.477c0-.419-1.87-.108-1.86.506a57.215 57.215 0 001.677 12.098c-1.148 4.458-2.228 8.935-3.452 13.403-.097.38 1.716.136 1.842-.34.867-3.174 1.658-6.356 2.459-9.54.78 3.125 1.59 6.24 2.198 9.403.097.497 1.929.049 1.861-.506-.829-4.341-2.044-8.595-3.037-12.887 1.032-3.98 2.13-7.942 3.452-11.865.125-.36-1.678-.146-1.832.331zM34.843 18.31c.048-.972-1.852-.778-1.929.118a1.897 1.897 0 000 .233.568.568 0 00-.096.205 133.295 133.295 0 01-3.887 12.731c-.617 1.878-1.099 3.786-1.61 5.694-.125-6.463-.125-12.897-.154-19.32 0-.974-1.929-.75-1.929.136 0 8.107 0 16.196.29 24.333a.578.578 0 000 .292l.057.428c.116.837 1.929.467 1.929-.302 1.572-4.058 2.382-8.36 3.751-12.497.502-1.519 1.013-3.027 1.504-4.536-.067 5.84.058 11.68.203 17.52 0 .974 1.523.75 1.842.059l.058-.117a.48.48 0 000-.536c-.242-8.234-.415-16.332-.03-24.44zM47.302 17.201a51.09 51.09 0 01-9.132.049c-.483 0-2.16.827-1.187.876.975.049 2.112.107 3.164.146-.097.078-.164.166-.155.253.28 8.186-1.022 16.78.183 24.888.058.41 1.929 0 1.861-.506-1.186-8.01.068-16.547-.173-24.596a39.601 39.601 0 005.14-.263c.82-.078 1.61-1.002.299-.847z" fill="#231F20"/></svg>