<svg width="36" height="36" fill="none" xmlns="http://www.w3.org/2000/svg"><path d="M18 35c9.389 0 17-7.611 17-17S27.389 1 18 1 1 8.611 1 18s7.611 17 17 17z" stroke="#fff" stroke-opacity=".5" stroke-width="2"/><path d="M18 2a16 16 0 100 32 16 16 0 000-32zm7.94 12.81c-.25 6.52-3.46 10.83-11 10.7h-.48c-.45 0-4.55-.44-5.35-1.82a7.32 7.32 0 005.12-1.14c-1.05-.29-2.92-.46-3.25-2.85a2.31 2.31 0 001.3.12C11 19 9.53 18.3 9.61 16.17c.418.32.934.482 1.46.46-.77-.23-2.15-3.24-1-4.78 2 1.79 4.07 3.48 7.8 3.64.23-2.21 1.24-3.7 3.17-4.32A3.61 3.61 0 0125 12.31c.74-.23 1.45-.47 2.19-.69a2.21 2.21 0 01-.93 1.71 1.77 1.77 0 001.42-.47 2.9 2.9 0 01-1.74 1.95z" fill="#fff" fill-opacity=".8"/></svg>